<svg id="svg" version="1.1" xmlns="http://www.w3.org/2000/svg" xmlns:xlink="http://www.w3.org/1999/xlink" width="400" height="400" viewBox="0, 0, 400,400"><g id="svgg"><path id="path0" d="M286.300 38.898 C 279.159 39.586,270.650 40.918,267.100 41.904 C 266.110 42.179,263.770 42.798,261.900 43.280 C 257.326 44.460,254.782 45.166,254.300 45.390 C 254.080 45.492,251.875 46.221,249.400 47.008 C 246.925 47.796,244.540 48.606,244.100 48.809 C 243.660 49.012,241.680 49.780,239.700 50.517 C 237.720 51.253,235.785 52.012,235.400 52.203 C 235.015 52.394,233.530 53.018,232.100 53.590 C 223.816 56.904,210.358 63.682,200.100 69.707 C 198.560 70.611,196.985 71.510,196.600 71.703 C 196.215 71.897,195.585 72.300,195.200 72.601 C 194.815 72.901,193.960 73.449,193.300 73.818 C 192.298 74.379,188.247 76.980,186.008 78.500 C 185.684 78.720,184.582 79.455,183.559 80.134 C 182.537 80.812,181.430 81.586,181.100 81.853 C 180.770 82.120,180.005 82.686,179.400 83.110 C 174.820 86.322,170.778 89.370,167.742 91.903 C 166.949 92.565,165.947 93.369,165.516 93.689 C 165.085 94.010,164.275 94.666,163.716 95.148 C 163.157 95.630,161.945 96.671,161.022 97.462 C 156.295 101.513,147.476 110.086,144.214 113.800 C 143.296 114.845,142.130 116.161,141.623 116.724 C 141.115 117.287,140.209 118.547,139.610 119.524 C 139.010 120.501,138.283 121.615,137.994 122.000 C 137.704 122.385,136.989 123.555,136.405 124.600 C 135.821 125.645,135.047 126.950,134.686 127.500 C 134.326 128.050,133.438 129.706,132.713 131.180 C 131.988 132.655,131.224 134.140,131.015 134.480 C 130.648 135.078,128.200 140.683,128.200 140.924 C 128.200 140.989,127.936 141.597,127.612 142.274 C 127.289 142.951,126.833 144.224,126.599 145.103 C 126.365 145.981,125.956 147.375,125.691 148.200 C 125.426 149.025,125.025 150.510,124.800 151.500 C 124.575 152.490,124.264 153.750,124.108 154.300 C 123.197 157.504,122.981 164.975,123.694 168.565 C 124.292 171.572,126.830 178.024,127.602 178.501 C 127.720 178.574,128.037 178.983,128.306 179.410 C 129.412 181.162,133.096 184.644,135.800 186.494 C 136.657 187.081,140.838 189.238,141.800 189.591 C 142.185 189.732,142.868 190.010,143.317 190.209 C 145.163 191.027,150.197 192.227,156.300 193.304 C 159.523 193.873,164.381 194.174,170.611 194.192 C 179.232 194.217,182.287 194.000,194.600 192.484 C 203.634 191.372,207.148 190.823,214.200 189.422 C 222.969 187.679,227.046 186.817,227.500 186.608 C 227.720 186.507,230.682 185.735,234.082 184.894 C 237.482 184.052,240.407 183.280,240.582 183.177 C 240.842 183.024,249.087 180.424,250.500 180.048 C 250.720 179.990,250.993 179.871,251.106 179.783 C 251.219 179.696,252.749 179.114,254.506 178.491 C 256.263 177.867,258.564 176.961,259.621 176.478 C 260.678 175.995,261.595 175.600,261.660 175.600 C 262.620 175.600,273.738 169.862,277.427 167.463 C 278.157 166.988,278.811 166.600,278.881 166.600 C 279.095 166.600,283.668 163.119,285.537 161.534 C 289.458 158.207,292.965 154.067,294.339 151.142 C 298.215 142.890,294.653 136.186,284.751 133.098 C 279.255 131.384,266.430 131.123,261.200 132.618 C 260.379 132.853,254.336 134.002,254.269 133.936 C 254.219 133.886,258.741 131.147,259.083 131.020 C 259.202 130.975,259.795 130.606,260.400 130.199 C 261.005 129.793,262.445 128.896,263.600 128.207 C 264.755 127.518,266.285 126.571,267.000 126.102 C 267.715 125.634,268.971 124.812,269.790 124.275 C 270.610 123.739,271.375 123.255,271.490 123.200 C 271.797 123.054,276.467 119.915,277.911 118.884 C 278.593 118.398,279.209 118.000,279.280 118.000 C 279.351 118.000,279.969 117.563,280.654 117.028 C 281.339 116.493,282.260 115.820,282.700 115.532 C 284.498 114.354,288.390 111.481,291.165 109.283 C 292.009 108.614,292.806 108.029,292.934 107.983 C 293.062 107.937,293.782 107.384,294.534 106.754 C 295.285 106.124,296.575 105.061,297.400 104.392 C 300.514 101.868,303.120 99.653,304.585 98.286 C 308.962 94.202,310.535 92.709,310.867 92.325 C 311.068 92.091,311.968 91.129,312.867 90.186 C 314.966 87.983,317.996 84.384,319.302 82.542 C 319.865 81.749,320.653 80.670,321.055 80.144 C 321.457 79.619,322.216 78.404,322.743 77.444 C 323.269 76.485,323.811 75.520,323.946 75.300 C 327.017 70.312,328.327 62.424,326.918 57.400 C 323.995 46.976,314.282 40.623,298.600 38.879 C 296.381 38.632,288.940 38.644,286.300 38.898 M300.546 43.221 C 302.060 43.409,303.750 43.657,304.300 43.770 C 306.704 44.266,308.656 44.798,309.447 45.174 C 309.916 45.397,311.020 45.883,311.900 46.255 C 313.707 47.019,315.840 48.336,317.252 49.558 C 317.775 50.011,318.320 50.454,318.461 50.541 C 318.685 50.680,319.336 51.474,321.017 53.660 C 324.503 58.195,324.333 65.731,320.579 73.100 C 319.089 76.024,315.555 81.490,314.691 82.208 C 314.502 82.364,313.799 83.214,313.128 84.096 C 310.507 87.544,300.399 97.183,295.226 101.167 C 294.607 101.644,293.785 102.329,293.400 102.689 C 293.015 103.048,292.025 103.842,291.200 104.451 C 290.375 105.061,289.205 105.932,288.600 106.387 C 285.609 108.636,285.012 109.087,283.900 109.930 C 283.240 110.431,281.980 111.329,281.100 111.926 C 280.220 112.523,278.600 113.639,277.500 114.406 C 276.400 115.173,274.645 116.370,273.600 117.066 C 272.555 117.763,271.040 118.776,270.233 119.316 C 269.426 119.857,268.346 120.562,267.833 120.883 C 267.320 121.204,266.270 121.879,265.500 122.383 C 264.730 122.887,263.867 123.435,263.582 123.600 C 262.598 124.168,260.771 125.303,258.992 126.450 C 258.011 127.083,257.174 127.600,257.133 127.600 C 257.013 127.600,253.808 129.467,252.600 130.241 C 251.995 130.628,251.005 131.211,250.400 131.535 C 248.918 132.330,248.357 132.656,248.000 132.931 C 247.557 133.273,245.714 134.302,243.938 135.200 C 243.078 135.635,242.127 136.167,241.824 136.383 C 241.520 136.599,240.276 137.280,239.059 137.897 C 236.639 139.122,236.362 139.352,236.020 140.419 C 235.375 142.432,236.905 143.223,239.516 142.227 C 241.143 141.607,242.935 141.068,250.300 138.985 C 252.315 138.415,257.116 137.478,260.970 136.901 C 262.802 136.628,264.795 136.315,265.400 136.207 C 268.788 135.603,276.614 135.494,279.200 136.016 C 279.695 136.115,280.820 136.330,281.700 136.494 C 290.363 138.100,294.231 143.537,290.776 149.253 C 290.459 149.777,290.200 150.281,290.200 150.372 C 290.200 151.241,286.247 155.840,283.367 158.322 C 279.436 161.710,272.512 166.143,267.420 168.532 C 266.387 169.018,264.632 169.868,263.520 170.423 C 262.409 170.977,260.465 171.837,259.200 172.333 C 257.935 172.828,256.810 173.307,256.700 173.395 C 256.403 173.634,251.370 175.472,249.300 176.096 C 248.310 176.395,247.410 176.710,247.300 176.797 C 246.999 177.033,242.384 178.497,240.015 179.107 C 238.869 179.402,237.384 179.846,236.715 180.093 C 236.047 180.340,233.520 181.010,231.100 181.582 C 228.680 182.153,225.755 182.852,224.600 183.135 C 220.208 184.211,218.158 184.634,213.600 185.409 C 211.015 185.848,208.450 186.296,207.900 186.404 C 200.784 187.808,192.868 188.847,185.100 189.396 C 183.560 189.505,180.999 189.687,179.408 189.800 C 166.283 190.734,152.489 189.408,144.800 186.472 C 138.756 184.165,133.665 180.693,131.800 177.607 C 131.525 177.152,131.044 176.447,130.730 176.040 C 129.497 174.439,128.396 171.458,127.911 168.407 C 127.729 167.265,127.535 166.257,127.479 166.167 C 127.342 165.944,127.337 160.117,127.474 159.663 C 127.535 159.463,127.727 158.175,127.902 156.800 C 128.381 153.024,129.642 147.911,130.713 145.400 C 130.971 144.795,131.511 143.400,131.913 142.300 C 132.314 141.200,133.533 138.472,134.622 136.239 C 135.710 134.005,136.600 132.128,136.600 132.068 C 136.600 132.007,136.874 131.551,137.210 131.054 C 137.545 130.557,138.127 129.554,138.503 128.825 C 139.316 127.246,140.734 124.946,143.175 121.244 C 145.737 117.357,153.943 108.835,161.801 101.900 C 162.923 100.910,164.285 99.702,164.829 99.215 C 165.372 98.728,166.522 97.783,167.384 97.115 C 168.246 96.447,170.064 95.000,171.423 93.900 C 172.783 92.800,174.122 91.747,174.398 91.561 C 174.674 91.375,175.620 90.682,176.500 90.021 C 179.292 87.926,183.184 85.114,183.867 84.700 C 184.229 84.480,185.106 83.895,185.816 83.400 C 186.526 82.905,187.253 82.410,187.432 82.300 C 187.789 82.080,190.402 80.346,192.900 78.671 C 193.780 78.081,194.569 77.599,194.652 77.599 C 194.736 77.600,195.411 77.206,196.152 76.723 C 197.824 75.636,201.007 73.698,202.431 72.901 C 203.813 72.127,205.173 71.348,206.835 70.379 C 207.569 69.950,208.246 69.600,208.338 69.600 C 208.431 69.600,208.828 69.382,209.220 69.116 C 209.840 68.694,213.408 66.803,217.600 64.673 C 219.939 63.484,226.056 60.559,228.100 59.652 C 232.899 57.522,235.002 56.633,236.500 56.101 C 237.380 55.788,238.190 55.467,238.300 55.386 C 238.657 55.125,241.035 54.188,243.900 53.178 C 245.440 52.636,246.880 52.105,247.100 51.998 C 247.804 51.658,251.423 50.454,253.931 49.727 C 255.269 49.339,257.339 48.698,258.531 48.303 C 260.670 47.594,264.072 46.718,267.000 46.121 C 267.825 45.953,269.580 45.544,270.900 45.213 C 279.017 43.175,292.769 42.251,300.546 43.221 M110.900 71.818 C 110.570 71.906,109.400 72.128,108.300 72.312 C 104.711 72.911,102.061 73.559,100.634 74.185 C 99.863 74.523,99.172 74.800,99.097 74.800 C 98.932 74.800,94.259 76.763,93.700 77.067 C 93.480 77.187,93.233 77.266,93.150 77.242 C 93.067 77.219,93.000 77.279,93.000 77.376 C 93.000 77.472,92.708 77.669,92.350 77.813 C 91.441 78.179,88.136 80.263,86.700 81.377 C 86.040 81.888,85.275 82.455,85.000 82.636 C 84.725 82.817,84.050 83.387,83.500 83.902 C 82.950 84.418,82.314 84.988,82.087 85.170 C 81.219 85.864,77.002 90.415,76.193 91.531 C 75.728 92.174,75.236 92.791,75.100 92.902 C 74.891 93.074,74.008 94.362,71.244 98.524 C 70.008 100.384,67.149 106.540,66.100 109.600 C 65.478 111.415,64.888 113.053,64.789 113.240 C 64.365 114.042,63.140 119.688,62.515 123.714 C 61.056 133.127,61.228 144.127,62.994 154.300 C 63.575 157.648,64.454 161.564,64.790 162.300 C 64.890 162.520,65.242 163.555,65.571 164.600 C 66.421 167.293,67.734 170.921,68.089 171.559 C 68.255 171.856,68.981 173.450,69.702 175.100 C 70.424 176.750,71.312 178.595,71.676 179.200 C 72.040 179.805,72.862 181.290,73.502 182.500 C 74.143 183.710,74.867 184.970,75.111 185.300 C 75.356 185.630,76.155 186.890,76.887 188.100 C 78.455 190.693,81.432 195.044,82.338 196.066 C 82.689 196.462,83.358 197.352,83.825 198.043 C 84.291 198.734,85.102 199.795,85.626 200.400 C 87.596 202.674,89.128 204.460,89.969 205.463 C 93.367 209.514,101.457 217.604,105.537 221.030 C 106.107 221.508,107.627 222.800,108.915 223.900 C 110.203 225.000,111.678 226.215,112.193 226.600 C 112.708 226.985,113.708 227.770,114.415 228.345 C 117.377 230.754,122.304 234.231,127.807 237.797 C 128.738 238.400,129.590 238.968,129.700 239.058 C 129.810 239.148,130.184 239.374,130.532 239.561 C 132.771 240.762,133.441 241.150,134.623 241.929 C 135.350 242.408,136.006 242.800,136.080 242.800 C 136.154 242.800,137.539 243.554,139.157 244.475 C 142.198 246.206,148.667 249.547,150.600 250.386 C 151.205 250.648,152.645 251.310,153.800 251.856 C 156.421 253.096,159.414 254.400,159.640 254.400 C 159.734 254.400,160.506 254.725,161.356 255.123 C 164.572 256.629,165.348 256.954,167.053 257.506 C 168.233 257.887,168.723 258.130,168.553 258.249 C 168.391 258.363,168.461 258.381,168.748 258.300 C 169.040 258.218,169.773 258.419,170.848 258.877 C 172.493 259.576,173.636 259.978,176.300 260.793 C 177.070 261.028,178.082 261.396,178.548 261.611 C 179.014 261.825,179.464 262.001,179.548 262.001 C 179.632 262.002,179.970 262.146,180.300 262.322 C 180.832 262.605,186.444 264.311,189.700 265.180 C 190.360 265.356,191.035 265.587,191.200 265.694 C 191.705 266.021,195.650 266.990,196.497 266.995 L 197.294 267.000 196.497 266.582 C 196.059 266.352,195.381 265.912,194.991 265.605 C 194.601 265.298,193.746 264.774,193.091 264.440 C 192.436 264.105,191.590 263.600,191.211 263.316 C 190.832 263.032,190.451 262.800,190.365 262.800 C 190.183 262.800,187.687 261.169,185.175 259.409 C 184.227 258.744,183.390 258.200,183.317 258.200 C 183.243 258.200,182.371 257.637,181.379 256.950 C 180.387 256.262,178.659 255.070,177.538 254.299 C 176.417 253.528,174.780 252.350,173.900 251.681 C 173.020 251.011,172.085 250.349,171.821 250.209 C 171.558 250.069,170.973 249.624,170.521 249.219 C 169.660 248.447,169.442 248.286,167.500 246.984 C 166.121 246.060,164.019 244.435,161.941 242.688 C 161.149 242.021,160.050 241.169,159.500 240.796 C 158.950 240.422,157.894 239.572,157.153 238.908 C 156.413 238.244,155.126 237.115,154.294 236.400 C 153.462 235.685,152.208 234.605,151.508 234.000 C 150.808 233.395,149.972 232.675,149.652 232.400 C 147.619 230.657,146.007 229.054,146.004 228.772 C 146.002 228.592,145.874 228.457,145.721 228.472 C 145.207 228.523,138.965 222.206,133.990 216.600 C 133.063 215.555,131.993 214.359,131.613 213.942 C 131.232 213.525,130.573 212.721,130.147 212.154 C 129.722 211.588,129.257 211.029,129.115 210.912 C 128.972 210.796,128.146 209.771,127.278 208.636 C 125.131 205.829,124.850 205.454,123.706 203.873 C 123.160 203.118,122.305 201.991,121.806 201.368 C 121.308 200.746,120.589 199.711,120.209 199.068 C 119.829 198.426,119.289 197.628,119.009 197.296 C 118.729 196.963,118.185 196.172,117.800 195.536 C 117.415 194.901,116.718 193.787,116.250 193.061 C 115.783 192.335,115.400 191.664,115.400 191.570 C 115.400 191.477,115.315 191.400,115.211 191.400 C 114.943 191.400,112.717 187.374,112.749 186.947 C 112.764 186.751,112.703 186.636,112.615 186.691 C 112.405 186.821,111.935 186.282,111.471 185.378 C 110.378 183.251,108.944 180.603,108.503 179.900 C 108.228 179.460,107.949 178.965,107.883 178.800 C 107.770 178.517,106.810 176.447,105.989 174.717 C 105.785 174.286,105.672 173.845,105.740 173.736 C 105.808 173.626,105.760 173.601,105.633 173.680 C 105.490 173.768,105.276 173.533,105.068 173.061 C 104.883 172.642,104.443 171.670,104.090 170.900 C 103.737 170.130,103.251 169.005,103.011 168.400 C 102.770 167.795,102.405 166.940,102.199 166.500 C 101.368 164.725,100.998 163.755,99.915 160.500 C 99.292 158.630,98.652 156.861,98.491 156.569 C 98.331 156.277,98.200 155.868,98.200 155.659 C 98.200 155.451,98.125 155.195,98.034 155.090 C 97.942 154.986,97.705 154.315,97.506 153.600 C 97.307 152.885,96.929 151.567,96.667 150.672 C 96.404 149.776,96.055 148.336,95.890 147.472 C 95.726 146.607,95.413 145.379,95.194 144.743 C 94.134 141.664,92.868 130.087,93.110 125.700 C 93.475 119.103,94.450 113.307,95.700 110.300 C 95.837 109.970,96.052 109.327,96.177 108.871 C 96.382 108.120,97.134 106.359,97.573 105.600 C 97.668 105.435,98.051 104.695,98.423 103.956 C 99.944 100.934,100.913 99.369,102.304 97.685 C 103.669 96.034,107.656 92.174,108.800 91.397 C 109.185 91.136,109.854 90.625,110.286 90.261 C 110.718 89.897,111.180 89.600,111.312 89.600 C 111.443 89.600,111.671 89.456,111.818 89.279 C 112.078 88.965,114.060 88.000,114.444 88.000 C 114.551 88.000,114.877 87.836,115.169 87.635 C 115.807 87.196,118.859 85.887,119.700 85.692 C 120.030 85.615,120.975 85.339,121.800 85.079 C 123.425 84.566,124.822 84.258,126.700 83.998 C 127.360 83.907,128.935 83.687,130.200 83.509 C 132.732 83.154,139.260 83.220,142.175 83.631 C 146.240 84.205,149.171 84.709,152.900 85.476 C 158.132 86.553,158.895 86.748,163.452 88.175 C 165.526 88.824,166.360 88.837,165.550 88.207 C 164.886 87.691,149.971 80.167,147.673 79.189 C 146.588 78.727,144.980 78.013,144.100 77.602 C 143.220 77.191,140.655 76.247,138.400 75.504 C 136.145 74.762,134.120 74.076,133.900 73.981 C 132.928 73.563,128.267 72.601,125.800 72.310 C 124.315 72.134,122.692 71.900,122.194 71.788 C 121.148 71.554,111.801 71.579,110.900 71.818 M130.275 186.943 C 128.110 187.342,128.705 190.673,131.664 194.727 C 131.974 195.152,132.649 196.139,133.164 196.921 C 137.202 203.048,147.350 212.549,152.800 215.304 C 153.185 215.499,153.995 215.993,154.600 216.402 C 155.873 217.264,162.441 220.492,164.500 221.268 C 171.153 223.776,173.693 224.571,178.967 225.799 C 180.910 226.251,183.220 226.792,184.100 227.000 C 186.951 227.674,191.446 228.241,199.900 228.993 C 207.546 229.673,221.277 228.685,226.061 227.112 C 226.522 226.960,227.980 226.503,229.300 226.096 C 231.914 225.291,235.036 224.049,236.300 223.312 C 236.740 223.055,237.721 222.511,238.480 222.102 C 242.808 219.770,247.396 215.170,248.505 212.049 C 248.690 211.527,248.945 210.883,249.071 210.619 C 249.432 209.859,249.368 206.522,248.984 206.071 C 248.810 205.867,248.437 205.295,248.155 204.800 C 245.281 199.760,236.376 197.527,223.800 198.692 C 219.746 199.068,214.808 199.731,214.120 199.992 C 213.820 200.106,212.613 200.378,211.437 200.595 C 210.262 200.813,208.310 201.176,207.100 201.403 C 204.410 201.907,200.145 202.529,196.800 202.906 C 195.425 203.061,193.625 203.275,192.800 203.381 C 187.435 204.074,174.254 204.072,170.237 203.378 C 169.612 203.270,167.840 203.014,166.300 202.808 C 162.162 202.256,154.924 200.687,154.300 200.207 C 154.190 200.123,153.200 199.758,152.100 199.398 C 149.658 198.597,145.809 197.050,145.400 196.704 C 145.235 196.565,144.335 196.084,143.400 195.634 C 141.207 194.581,140.248 194.032,138.549 192.858 C 135.791 190.951,134.826 190.179,133.273 188.637 C 131.737 187.110,131.154 186.781,130.275 186.943 M143.216 200.022 C 144.603 200.982,153.290 204.142,156.900 204.999 C 169.001 207.873,178.303 208.529,192.100 207.480 C 196.086 207.177,196.599 207.116,200.200 206.516 C 201.245 206.342,202.910 206.072,203.900 205.915 C 204.890 205.758,207.410 205.315,209.500 204.931 C 211.590 204.547,214.245 204.087,215.400 203.908 C 216.555 203.729,217.815 203.497,218.200 203.392 C 221.263 202.556,233.604 202.142,236.900 202.764 C 245.076 204.308,247.494 208.331,243.233 213.300 C 242.667 213.960,242.203 214.560,242.202 214.633 C 242.200 214.769,241.181 215.587,238.960 217.234 C 229.657 224.135,211.780 226.823,192.000 224.297 C 190.625 224.121,188.960 223.848,188.300 223.690 C 187.640 223.533,186.470 223.310,185.700 223.195 C 182.107 222.661,176.105 221.252,173.928 220.433 C 173.363 220.220,171.595 219.621,170.000 219.101 C 166.920 218.097,160.488 215.263,157.938 213.787 C 151.301 209.946,148.750 208.127,144.493 204.200 C 142.058 201.954,138.400 197.981,138.400 197.582 C 138.400 197.424,142.367 199.434,143.216 200.022 M204.351 271.048 C 204.236 271.393,204.688 271.800,205.186 271.800 C 205.414 271.800,205.600 271.890,205.600 272.000 C 205.600 272.110,205.736 272.200,205.903 272.200 C 206.069 272.200,206.362 272.289,206.553 272.398 C 206.904 272.598,211.205 274.439,211.850 274.665 C 212.043 274.732,212.200 274.886,212.200 275.006 C 212.200 275.125,212.284 275.172,212.386 275.109 C 212.489 275.045,212.630 275.087,212.701 275.202 C 212.772 275.316,213.431 275.725,214.165 276.110 C 216.017 277.081,217.098 277.802,218.900 279.268 C 220.211 280.336,220.656 280.747,220.250 280.518 C 220.113 280.440,220.000 280.454,220.000 280.548 C 220.000 280.642,220.317 280.834,220.705 280.975 C 221.093 281.115,221.559 281.470,221.741 281.765 C 221.923 282.059,222.317 282.570,222.617 282.900 C 224.649 285.136,227.199 289.870,228.005 292.900 C 228.209 293.670,228.512 294.801,228.676 295.412 C 228.841 296.024,228.972 296.789,228.967 297.112 C 228.962 297.436,229.064 298.150,229.193 298.700 C 229.679 300.778,229.126 309.989,228.400 311.899 C 228.290 312.189,228.197 312.623,228.193 312.863 C 228.189 313.103,228.013 313.660,227.800 314.100 C 227.587 314.540,227.409 315.035,227.404 315.200 C 227.385 315.807,225.975 319.894,225.403 321.000 C 225.204 321.385,224.486 322.808,223.808 324.162 C 222.321 327.132,221.655 328.279,220.657 329.585 C 220.241 330.130,219.613 330.964,219.263 331.438 C 218.912 331.912,218.327 332.632,217.963 333.037 C 217.598 333.443,216.760 334.382,216.100 335.124 C 214.613 336.795,214.856 336.552,211.389 339.837 C 208.601 342.478,208.039 342.953,206.293 344.148 C 205.849 344.451,205.354 344.813,205.193 344.951 C 205.032 345.089,204.405 345.528,203.800 345.927 C 203.195 346.325,202.475 346.853,202.200 347.100 C 201.925 347.347,201.070 347.914,200.300 348.360 C 199.530 348.807,198.675 349.345,198.400 349.556 C 196.673 350.883,189.707 354.814,186.800 356.103 C 185.865 356.518,184.861 357.024,184.569 357.229 C 184.277 357.433,183.988 357.600,183.926 357.600 C 183.864 357.600,182.888 358.039,181.757 358.576 C 180.625 359.113,179.475 359.620,179.200 359.704 C 178.925 359.787,178.485 360.023,178.223 360.228 C 177.961 360.432,177.643 360.600,177.516 360.600 C 177.310 360.600,174.673 361.611,173.100 362.293 C 172.770 362.436,172.140 362.661,171.700 362.793 C 171.260 362.924,170.333 363.295,169.641 363.616 C 168.949 363.937,168.331 364.200,168.269 364.200 C 168.206 364.200,167.333 364.506,166.328 364.880 C 165.322 365.254,163.690 365.760,162.700 366.005 C 161.710 366.249,160.713 366.565,160.485 366.706 C 159.912 367.061,155.224 368.219,150.000 369.295 C 148.735 369.556,146.845 369.963,145.800 370.201 C 144.755 370.439,143.008 370.761,141.917 370.917 C 139.756 371.225,139.738 371.232,139.697 371.790 C 139.672 372.126,139.792 372.166,140.684 372.121 C 141.243 372.092,143.320 372.181,145.300 372.318 C 148.819 372.562,151.965 372.725,156.600 372.903 C 159.481 373.015,172.619 373.007,174.500 372.894 C 175.270 372.847,176.395 372.762,177.000 372.705 C 178.361 372.577,182.640 372.269,186.979 371.987 C 190.819 371.738,190.894 371.729,193.500 371.231 C 194.600 371.021,195.815 370.861,196.200 370.875 C 196.585 370.889,196.947 370.838,197.004 370.762 C 197.062 370.687,197.624 370.597,198.254 370.562 C 198.883 370.528,199.399 370.449,199.399 370.387 C 199.400 370.256,201.856 369.734,202.600 369.706 C 202.875 369.696,203.204 369.623,203.332 369.543 C 203.460 369.464,203.820 369.380,204.132 369.358 C 204.444 369.335,204.754 369.239,204.820 369.145 C 204.886 369.050,205.336 368.931,205.820 368.880 C 206.304 368.829,207.150 368.662,207.700 368.509 C 208.250 368.356,209.240 368.082,209.900 367.899 C 210.560 367.717,211.415 367.481,211.800 367.374 C 212.185 367.268,213.130 367.043,213.900 366.875 C 214.670 366.706,215.385 366.486,215.490 366.384 C 215.594 366.283,215.977 366.200,216.340 366.200 C 216.703 366.200,217.000 366.123,217.000 366.029 C 217.000 365.883,218.453 365.369,221.200 364.544 C 222.569 364.133,224.307 363.513,224.800 363.260 C 225.075 363.118,225.368 363.002,225.452 363.001 C 225.536 363.001,225.986 362.829,226.452 362.619 C 226.918 362.409,227.565 362.178,227.888 362.106 C 228.211 362.033,228.706 361.812,228.988 361.614 C 229.270 361.417,229.860 361.140,230.300 360.999 C 231.026 360.766,233.548 359.572,234.800 358.869 C 235.075 358.715,235.925 358.266,236.689 357.872 C 237.453 357.478,238.419 356.940,238.835 356.678 C 239.252 356.415,239.715 356.200,239.864 356.200 C 240.014 356.200,240.498 355.863,240.940 355.450 C 241.382 355.038,242.582 354.070,243.606 353.300 C 245.345 351.993,247.532 350.210,247.831 349.855 C 248.374 349.212,250.206 347.259,250.670 346.829 C 250.984 346.538,251.377 346.030,251.544 345.700 C 251.710 345.370,252.003 344.920,252.194 344.700 C 252.385 344.480,252.754 343.895,253.014 343.400 C 253.274 342.905,253.641 342.320,253.829 342.100 C 254.662 341.129,258.001 333.727,258.295 332.200 C 258.369 331.815,258.602 330.984,258.813 330.354 C 259.569 328.094,260.177 323.250,260.187 319.400 C 260.194 316.842,259.623 311.855,259.204 310.800 C 259.094 310.525,258.981 309.985,258.952 309.600 C 258.924 309.215,258.849 308.855,258.788 308.800 C 258.726 308.745,258.516 308.160,258.322 307.500 C 257.910 306.098,257.595 305.400,257.375 305.400 C 257.289 305.400,257.160 305.088,257.088 304.707 C 257.017 304.326,256.833 303.910,256.679 303.783 C 256.526 303.655,256.398 303.360,256.396 303.126 C 256.394 302.891,255.944 301.901,255.396 300.925 C 254.848 299.948,254.400 299.071,254.400 298.975 C 254.400 298.879,254.331 298.800,254.247 298.800 C 254.164 298.800,254.006 298.623,253.897 298.407 C 253.343 297.302,251.891 295.150,251.179 294.376 C 250.736 293.894,250.135 293.151,249.843 292.725 C 249.552 292.299,248.694 291.354,247.936 290.625 C 246.077 288.837,246.229 288.987,245.065 287.777 C 243.619 286.271,242.379 285.161,241.688 284.751 C 240.182 283.858,239.090 283.139,238.984 282.971 C 238.920 282.869,238.515 282.600,238.084 282.372 C 237.653 282.144,237.120 281.795,236.900 281.596 C 236.680 281.397,235.780 280.880,234.900 280.447 C 234.020 280.015,232.580 279.303,231.700 278.865 C 230.820 278.427,228.930 277.643,227.500 277.122 C 226.070 276.601,224.744 276.090,224.553 275.987 C 224.362 275.884,224.019 275.800,223.791 275.800 C 223.563 275.800,223.432 275.710,223.500 275.600 C 223.568 275.490,223.483 275.389,223.312 275.375 C 222.958 275.347,222.823 275.313,222.400 275.149 C 222.235 275.085,221.290 274.842,220.300 274.610 C 219.310 274.377,218.224 274.100,217.886 273.993 C 217.548 273.887,217.081 273.800,216.848 273.800 C 216.614 273.800,216.377 273.725,216.321 273.634 C 216.265 273.543,215.697 273.353,215.059 273.213 C 214.422 273.072,213.180 272.740,212.300 272.475 C 210.922 272.059,209.526 271.731,207.148 271.263 C 206.844 271.203,206.546 271.074,206.486 270.977 C 206.314 270.699,204.446 270.762,204.351 271.048 " stroke="none" fill="#d46cac" fill-rule="evenodd"></path><path id="path1" d="M287.500 42.921 C 282.678 43.214,274.847 44.322,271.300 45.213 C 269.980 45.544,268.225 45.952,267.400 46.120 C 263.764 46.860,259.951 47.865,257.900 48.625 C 257.350 48.828,255.685 49.344,254.200 49.771 C 251.744 50.477,249.624 51.184,246.300 52.407 C 245.640 52.650,244.470 53.073,243.700 53.348 C 241.603 54.097,238.728 55.240,238.495 55.418 C 238.382 55.504,237.437 55.884,236.395 56.262 C 234.604 56.911,232.503 57.800,227.900 59.857 C 225.455 60.950,218.670 64.191,217.300 64.921 C 216.750 65.214,214.913 66.173,213.217 67.052 C 211.521 67.931,209.726 68.909,209.228 69.225 C 208.729 69.541,208.259 69.800,208.182 69.800 C 208.105 69.800,206.931 70.445,205.571 71.233 C 204.212 72.021,202.400 73.057,201.545 73.534 C 200.690 74.012,199.520 74.703,198.945 75.070 C 198.370 75.437,197.175 76.201,196.288 76.768 C 195.402 77.336,194.616 77.800,194.543 77.800 C 194.410 77.800,191.936 79.402,189.000 81.389 C 185.772 83.573,184.958 84.118,184.201 84.600 C 183.359 85.136,179.319 88.055,176.700 90.021 C 175.820 90.682,174.874 91.375,174.598 91.561 C 174.322 91.747,172.983 92.800,171.623 93.900 C 170.264 95.000,168.446 96.447,167.584 97.115 C 166.722 97.783,165.572 98.728,165.029 99.215 C 164.485 99.702,163.122 100.910,162.000 101.900 C 153.980 108.974,145.382 117.928,143.043 121.639 C 142.634 122.288,141.689 123.758,140.941 124.906 C 138.390 128.825,133.564 138.225,132.113 142.100 C 131.701 143.200,131.157 144.595,130.903 145.200 C 130.171 146.950,129.417 149.483,128.704 152.590 C 126.544 162.004,127.443 171.735,130.869 176.028 C 131.106 176.325,131.525 176.946,131.800 177.408 C 133.109 179.607,137.330 182.979,141.000 184.756 C 149.726 188.981,163.945 190.877,178.900 189.809 C 180.550 189.691,183.160 189.506,184.700 189.397 C 192.325 188.857,201.343 187.676,207.500 186.412 C 208.050 186.299,210.435 185.881,212.800 185.483 C 217.096 184.761,220.529 184.054,224.300 183.118 C 225.400 182.845,228.280 182.153,230.700 181.581 C 233.120 181.009,235.820 180.293,236.700 179.990 C 237.580 179.687,239.335 179.162,240.600 178.824 C 241.865 178.486,243.800 177.900,244.900 177.523 C 246.000 177.145,248.655 176.233,250.800 175.496 C 252.945 174.760,255.285 173.890,256.000 173.564 C 256.715 173.237,258.110 172.653,259.100 172.265 C 260.090 171.877,262.100 170.978,263.567 170.267 C 265.034 169.556,266.879 168.676,267.667 168.312 C 272.218 166.209,279.412 161.566,283.200 158.289 C 286.110 155.771,290.000 151.337,290.000 150.537 C 290.000 150.431,290.266 149.911,290.592 149.382 C 294.183 143.546,290.345 138.192,281.347 136.488 C 280.441 136.317,279.250 136.090,278.700 135.985 C 276.667 135.596,268.902 135.731,265.900 136.208 C 265.240 136.313,263.440 136.584,261.900 136.810 C 256.710 137.572,249.599 139.065,248.593 139.604 C 248.389 139.713,247.455 139.984,246.517 140.207 C 244.485 140.690,240.917 141.783,239.443 142.375 C 237.178 143.285,235.652 142.653,235.851 140.888 C 236.004 139.529,236.403 139.122,238.745 137.944 C 239.930 137.348,241.395 136.546,242.000 136.162 C 242.605 135.778,243.595 135.231,244.200 134.946 C 244.805 134.660,245.885 134.066,246.600 133.624 C 247.315 133.183,248.665 132.396,249.600 131.876 C 250.535 131.356,251.975 130.510,252.800 129.996 C 253.625 129.482,255.065 128.627,256.000 128.096 C 256.935 127.565,258.285 126.753,259.000 126.293 C 259.715 125.833,260.705 125.219,261.200 124.929 C 261.695 124.639,262.730 123.998,263.500 123.506 C 264.270 123.013,265.665 122.140,266.600 121.565 C 267.535 120.989,268.811 120.155,269.435 119.709 C 270.060 119.264,271.500 118.297,272.635 117.559 C 273.771 116.821,275.735 115.496,277.000 114.614 C 278.265 113.732,280.020 112.522,280.900 111.925 C 281.780 111.329,283.040 110.431,283.700 109.930 C 284.812 109.087,285.409 108.636,288.400 106.387 C 289.005 105.932,290.175 105.061,291.000 104.451 C 291.825 103.842,292.815 103.048,293.200 102.689 C 293.585 102.329,294.407 101.644,295.026 101.167 C 300.232 97.158,310.471 87.388,313.128 83.896 C 313.799 83.014,314.502 82.164,314.691 82.008 C 315.575 81.274,319.080 75.836,320.561 72.900 C 324.279 65.530,324.430 58.331,320.963 53.800 C 319.201 51.498,318.518 50.682,318.140 50.426 C 317.898 50.263,317.359 49.828,316.943 49.459 C 315.673 48.334,313.397 46.971,311.467 46.179 C 310.458 45.766,309.376 45.295,309.062 45.132 C 308.074 44.621,303.363 43.582,300.300 43.199 C 298.497 42.973,289.755 42.784,287.500 42.921 M138.797 197.981 C 139.137 198.592,142.912 202.582,144.714 204.236 C 149.030 208.194,150.986 209.585,158.208 213.827 C 160.524 215.187,166.808 217.925,170.100 219.008 C 171.860 219.587,173.705 220.218,174.200 220.410 C 175.581 220.947,180.195 222.106,183.200 222.671 C 187.695 223.516,188.235 223.615,189.995 223.907 C 199.373 225.465,214.916 225.466,221.900 223.908 C 230.614 221.964,235.719 219.714,241.114 215.439 C 241.711 214.965,242.200 214.512,242.200 214.431 C 242.200 214.350,242.607 213.837,243.105 213.292 C 248.375 207.516,243.784 202.961,232.208 202.479 C 226.382 202.237,222.188 202.697,210.000 204.918 C 207.855 205.309,205.245 205.766,204.200 205.932 C 201.706 206.331,198.968 206.771,197.600 206.995 C 184.863 209.080,164.958 207.773,153.100 204.074 C 151.021 203.425,144.046 200.670,143.400 200.241 C 142.171 199.426,138.635 197.690,138.797 197.981 " stroke="none" fill="#fcfcfc" fill-rule="evenodd"></path><path id="path2" d="M151.087 112.250 L 150.500 112.900 151.150 112.313 C 151.508 111.990,151.800 111.697,151.800 111.663 C 151.800 111.508,151.635 111.644,151.087 112.250 M147.000 116.500 C 146.514 116.995,146.162 117.400,146.217 117.400 C 146.272 117.400,146.714 116.995,147.200 116.500 C 147.686 116.005,148.038 115.600,147.983 115.600 C 147.928 115.600,147.486 116.005,147.000 116.500 " stroke="none" fill="#ecb4d4" fill-rule="evenodd"></path><path id="path3" d="M271.752 135.741 C 272.001 135.789,272.361 135.787,272.552 135.737 C 272.744 135.687,272.540 135.648,272.100 135.650 C 271.660 135.653,271.504 135.694,271.752 135.741 M274.552 135.741 C 274.801 135.789,275.161 135.787,275.352 135.737 C 275.544 135.687,275.340 135.648,274.900 135.650 C 274.460 135.653,274.304 135.694,274.552 135.741 M226.250 202.538 C 226.443 202.588,226.757 202.588,226.950 202.538 C 227.143 202.488,226.985 202.446,226.600 202.446 C 226.215 202.446,226.058 202.488,226.250 202.538 M233.250 202.538 C 233.443 202.588,233.757 202.588,233.950 202.538 C 234.143 202.488,233.985 202.446,233.600 202.446 C 233.215 202.446,233.058 202.488,233.250 202.538 M202.250 225.146 C 202.663 225.189,203.338 225.189,203.750 225.146 C 204.163 225.103,203.825 225.067,203.000 225.067 C 202.175 225.067,201.838 225.103,202.250 225.146 M208.550 225.149 C 209.347 225.186,210.653 225.186,211.450 225.149 C 212.248 225.111,211.595 225.079,210.000 225.079 C 208.405 225.079,207.753 225.111,208.550 225.149 " stroke="none" fill="#f4d4e4" fill-rule="evenodd"></path><path id="path4" d="M314.687 82.050 L 314.100 82.700 314.750 82.113 C 315.108 81.790,315.400 81.497,315.400 81.463 C 315.400 81.308,315.235 81.444,314.687 82.050 M309.292 88.250 L 308.300 89.300 309.350 88.308 C 309.928 87.762,310.400 87.289,310.400 87.258 C 310.400 87.108,310.215 87.274,309.292 88.250 M305.492 92.050 L 304.500 93.100 305.550 92.108 C 306.127 91.562,306.600 91.089,306.600 91.058 C 306.600 90.908,306.415 91.074,305.492 92.050 M165.189 98.950 L 164.500 99.700 165.250 99.011 C 165.948 98.369,166.092 98.200,165.939 98.200 C 165.906 98.200,165.568 98.538,165.189 98.950 M162.092 101.650 L 161.100 102.700 162.150 101.708 C 163.126 100.785,163.292 100.600,163.142 100.600 C 163.111 100.600,162.638 101.073,162.092 101.650 M158.393 104.950 L 157.300 106.100 158.450 105.007 C 159.518 103.991,159.692 103.800,159.543 103.800 C 159.512 103.800,158.994 104.317,158.393 104.950 M154.996 108.150 L 153.300 109.900 155.050 108.204 C 156.675 106.630,156.891 106.400,156.746 106.400 C 156.716 106.400,155.928 107.188,154.996 108.150 M285.887 155.850 L 285.300 156.500 285.950 155.913 C 286.556 155.365,286.692 155.200,286.537 155.200 C 286.503 155.200,286.210 155.493,285.887 155.850 M134.600 180.700 C 134.973 181.085,135.323 181.400,135.378 181.400 C 135.433 181.400,135.173 181.085,134.800 180.700 C 134.427 180.315,134.077 180.000,134.022 180.000 C 133.967 180.000,134.227 180.315,134.600 180.700 M140.592 200.250 C 141.420 201.133,141.600 201.292,141.600 201.142 C 141.600 201.110,141.172 200.682,140.650 200.192 L 139.700 199.300 140.592 200.250 M142.600 202.500 C 142.973 202.885,143.323 203.200,143.378 203.200 C 143.433 203.200,143.173 202.885,142.800 202.500 C 142.427 202.115,142.077 201.800,142.022 201.800 C 141.967 201.800,142.227 202.115,142.600 202.500 M145.300 205.000 C 145.730 205.440,146.126 205.800,146.181 205.800 C 146.236 205.800,145.930 205.440,145.500 205.000 C 145.070 204.560,144.674 204.200,144.619 204.200 C 144.564 204.200,144.870 204.560,145.300 205.000 " stroke="none" fill="#e4acd4" fill-rule="evenodd"></path></g></svg>